# ProBuilder 5.0.6
# https://unity3d.com/unity/features/worldbuilding/probuilder
# 07/23/2022 17:04:12

mtllib ./Ocean_Plane_LOD1.mtl
o Ocean Plane LOD1

g Ocean Plane LOD1
v 19.56127 -7.152557E-07 -31.54728
v 19.56127 -7.152557E-07 -22.45628
v 10.47027 -7.152557E-07 -31.54728
v 10.47027 -7.152557E-07 -22.45628
v 19.56127 -7.152557E-07 -13.36548
v 10.47027 -7.152557E-07 -13.36548
v 19.56127 -7.152557E-07 -4.274483
v 10.47027 -7.152557E-07 -4.274483
v 19.56127 -7.152557E-07 4.816322
v 10.47027 -7.152557E-07 4.816322
v 19.56127 -7.152557E-07 13.90732
v 10.47027 -7.152557E-07 13.90732
v 19.56127 -7.152557E-07 22.99812
v 10.47027 -7.152557E-07 22.99812
v 19.56127 -7.152557E-07 32.08912
v 10.47027 -7.152557E-07 32.08912
v 19.56127 -7.152557E-07 41.17992
v 10.47027 -7.152557E-07 41.17992
v 19.56127 -7.152557E-07 50.27092
v 10.47027 -7.152557E-07 50.27092
v 19.56127 -7.152557E-07 59.36172
v 10.47027 -7.152557E-07 59.36172
v 19.56127 -7.152557E-07 68.45272
v 10.47027 -7.152557E-07 68.45272
v 1.379467 -7.152557E-07 -31.54728
v 1.379467 -7.152557E-07 -22.45628
v 1.379467 -7.152557E-07 -13.36548
v 1.379467 -7.152557E-07 -4.274483
v 1.379467 -7.152557E-07 4.816322
v 1.379467 -7.152557E-07 13.90732
v 1.379467 -7.152557E-07 22.99812
v 1.379467 -7.152557E-07 32.08912
v 1.379467 -7.152557E-07 41.17992
v 1.379467 -7.152557E-07 50.27092
v 1.379467 -7.152557E-07 59.36172
v 1.379467 -7.152557E-07 68.45272
v -7.711529 -7.152557E-07 -31.54728
v -7.711529 -7.152557E-07 -22.45628
v -7.711529 -7.152557E-07 -13.36548
v -7.711529 -7.152557E-07 -4.274483
v -7.711529 -7.152557E-07 4.816322
v -7.711529 -7.152557E-07 13.90732
v -7.711529 -7.152557E-07 22.99812
v -7.711529 -7.152557E-07 32.08912
v -7.711529 -7.152557E-07 41.17992
v -7.711529 -7.152557E-07 50.27092
v -7.711529 -7.152557E-07 59.36172
v -7.711529 -7.152557E-07 68.45272
v -16.80233 -7.152557E-07 -31.54728
v -16.80233 -7.152557E-07 -22.45628
v -16.80233 -7.152557E-07 -13.36548
v -16.80233 -7.152557E-07 -4.274483
v -16.80233 -7.152557E-07 4.816322
v -16.80233 -7.152557E-07 13.90732
v -16.80233 -7.152557E-07 22.99812
v -16.80233 -7.152557E-07 32.08912
v -16.80233 -7.152557E-07 41.17992
v -16.80233 -7.152557E-07 50.27092
v -16.80233 -7.152557E-07 59.36172
v -16.80233 -7.152557E-07 68.45272
v -25.89333 -7.152557E-07 -31.54728
v -25.89333 -7.152557E-07 -22.45628
v -25.89333 -7.152557E-07 -13.36548
v -25.89333 -7.152557E-07 -4.274483
v -25.89333 -7.152557E-07 4.816322
v -25.89333 -7.152557E-07 13.90732
v -25.89333 -7.152557E-07 22.99812
v -25.89333 -7.152557E-07 32.08912
v -25.89333 -7.152557E-07 41.17992
v -25.89333 -7.152557E-07 50.27092
v -25.89333 -7.152557E-07 59.36172
v -25.89333 -7.152557E-07 68.45272
v -34.98413 -7.152557E-07 -31.54728
v -34.98413 -7.152557E-07 -22.45628
v -34.98413 -7.152557E-07 -13.36548
v -34.98413 -7.152557E-07 -4.274483
v -34.98413 -7.152557E-07 4.816322
v -34.98413 -7.152557E-07 13.90732
v -34.98413 -7.152557E-07 22.99812
v -34.98413 -7.152557E-07 32.08912
v -34.98413 -7.152557E-07 41.17992
v -34.98413 -7.152557E-07 50.27092
v -34.98413 -7.152557E-07 59.36172
v -34.98413 -7.152557E-07 68.45272
v -44.07513 -7.152557E-07 -31.54728
v -44.07513 -7.152557E-07 -22.45628
v -44.07513 -7.152557E-07 -13.36548
v -44.07513 -7.152557E-07 -4.274483
v -44.07513 -7.152557E-07 4.816322
v -44.07513 -7.152557E-07 13.90732
v -44.07513 -7.152557E-07 22.99812
v -44.07513 -7.152557E-07 32.08912
v -44.07513 -7.152557E-07 41.17992
v -44.07513 -7.152557E-07 50.27092
v -44.07513 -7.152557E-07 59.36172
v -44.07513 -7.152557E-07 68.45272
v -53.16594 -7.152557E-07 -31.54728
v -53.16594 -7.152557E-07 -22.45628
v -53.16594 -7.152557E-07 -13.36548
v -53.16594 -7.152557E-07 -4.274483
v -53.16594 -7.152557E-07 4.816322
v -53.16594 -7.152557E-07 13.90732
v -53.16594 -7.152557E-07 22.99812
v -53.16594 -7.152557E-07 32.08912
v -53.16594 -7.152557E-07 41.17992
v -53.16594 -7.152557E-07 50.27092
v -53.16594 -7.152557E-07 59.36172
v -53.16594 -7.152557E-07 68.45272
v -62.25693 -7.152557E-07 -31.54728
v -62.25693 -7.152557E-07 -22.45628
v -62.25693 -7.152557E-07 -13.36548
v -62.25693 -7.152557E-07 -4.274483
v -62.25693 -7.152557E-07 4.816322
v -62.25693 -7.152557E-07 13.90732
v -62.25693 -7.152557E-07 22.99812
v -62.25693 -7.152557E-07 32.08912
v -62.25693 -7.152557E-07 41.17992
v -62.25693 -7.152557E-07 50.27092
v -62.25693 -7.152557E-07 59.36172
v -62.25693 -7.152557E-07 68.45272
v -71.34773 -7.152557E-07 -31.54728
v -71.34773 -7.152557E-07 -22.45628
v -71.34773 -7.152557E-07 -13.36548
v -71.34773 -7.152557E-07 -4.274483
v -71.34773 -7.152557E-07 4.816322
v -71.34773 -7.152557E-07 13.90732
v -71.34773 -7.152557E-07 22.99812
v -71.34773 -7.152557E-07 32.08912
v -71.34773 -7.152557E-07 41.17992
v -71.34773 -7.152557E-07 50.27092
v -71.34773 -7.152557E-07 59.36172
v -71.34773 -7.152557E-07 68.45272
v -80.43874 -7.152557E-07 -31.54728
v -80.43874 -7.152557E-07 -22.45628
v -80.43874 -7.152557E-07 -13.36548
v -80.43874 -7.152557E-07 -4.274483
v -80.43874 -7.152557E-07 4.816322
v -80.43874 -7.152557E-07 13.90732
v -80.43874 -7.152557E-07 22.99812
v -80.43874 -7.152557E-07 32.08912
v -80.43874 -7.152557E-07 41.17992
v -80.43874 -7.152557E-07 50.27092
v -80.43874 -7.152557E-07 59.36172
v -80.43874 -7.152557E-07 68.45272

vt -19.56127 -31.54728
vt -19.56127 -22.45628
vt -10.47027 -31.54728
vt -10.47027 -22.45628
vt -19.56127 -13.36548
vt -10.47027 -13.36548
vt -19.56127 -4.274483
vt -10.47027 -4.274483
vt -19.56127 4.816322
vt -10.47027 4.816322
vt -19.56127 13.90732
vt -10.47027 13.90732
vt -19.56127 22.99812
vt -10.47027 22.99812
vt -19.56127 32.08912
vt -10.47027 32.08912
vt -19.56127 41.17992
vt -10.47027 41.17992
vt -19.56127 50.27092
vt -10.47027 50.27092
vt -19.56127 59.36172
vt -10.47027 59.36172
vt -19.56127 68.45272
vt -10.47027 68.45272
vt -1.379467 -31.54728
vt -1.379467 -22.45628
vt -1.379467 -13.36548
vt -1.379467 -4.274483
vt -1.379467 4.816322
vt -1.379467 13.90732
vt -1.379467 22.99812
vt -1.379467 32.08912
vt -1.379467 41.17992
vt -1.379467 50.27092
vt -1.379467 59.36172
vt -1.379467 68.45272
vt 7.711529 -31.54728
vt 7.711529 -22.45628
vt 7.711529 -13.36548
vt 7.711529 -4.274483
vt 7.711529 4.816322
vt 7.711529 13.90732
vt 7.711529 22.99812
vt 7.711529 32.08912
vt 7.711529 41.17992
vt 7.711529 50.27092
vt 7.711529 59.36172
vt 7.711529 68.45272
vt 16.80233 -31.54728
vt 16.80233 -22.45628
vt 16.80233 -13.36548
vt 16.80233 -4.274483
vt 16.80233 4.816322
vt 16.80233 13.90732
vt 16.80233 22.99812
vt 16.80233 32.08912
vt 16.80233 41.17992
vt 16.80233 50.27092
vt 16.80233 59.36172
vt 16.80233 68.45272
vt 25.89333 -31.54728
vt 25.89333 -22.45628
vt 25.89333 -13.36548
vt 25.89333 -4.274483
vt 25.89333 4.816322
vt 25.89333 13.90732
vt 25.89333 22.99812
vt 25.89333 32.08912
vt 25.89333 41.17992
vt 25.89333 50.27092
vt 25.89333 59.36172
vt 25.89333 68.45272
vt 34.98413 -31.54728
vt 34.98413 -22.45628
vt 34.98413 -13.36548
vt 34.98413 -4.274483
vt 34.98413 4.816322
vt 34.98413 13.90732
vt 34.98413 22.99812
vt 34.98413 32.08912
vt 34.98413 41.17992
vt 34.98413 50.27092
vt 34.98413 59.36172
vt 34.98413 68.45272
vt 44.07513 -31.54728
vt 44.07513 -22.45628
vt 44.07513 -13.36548
vt 44.07513 -4.274483
vt 44.07513 4.816322
vt 44.07513 13.90732
vt 44.07513 22.99812
vt 44.07513 32.08912
vt 44.07513 41.17992
vt 44.07513 50.27092
vt 44.07513 59.36172
vt 44.07513 68.45272
vt 53.16594 -31.54728
vt 53.16594 -22.45628
vt 53.16594 -13.36548
vt 53.16594 -4.274483
vt 53.16594 4.816322
vt 53.16594 13.90732
vt 53.16594 22.99812
vt 53.16594 32.08912
vt 53.16594 41.17992
vt 53.16594 50.27092
vt 53.16594 59.36172
vt 53.16594 68.45272
vt 62.25693 -31.54728
vt 62.25693 -22.45628
vt 62.25693 -13.36548
vt 62.25693 -4.274483
vt 62.25693 4.816322
vt 62.25693 13.90732
vt 62.25693 22.99812
vt 62.25693 32.08912
vt 62.25693 41.17992
vt 62.25693 50.27092
vt 62.25693 59.36172
vt 62.25693 68.45272
vt 71.34773 -31.54728
vt 71.34773 -22.45628
vt 71.34773 -13.36548
vt 71.34773 -4.274483
vt 71.34773 4.816322
vt 71.34773 13.90732
vt 71.34773 22.99812
vt 71.34773 32.08912
vt 71.34773 41.17992
vt 71.34773 50.27092
vt 71.34773 59.36172
vt 71.34773 68.45272
vt 80.43874 -31.54728
vt 80.43874 -22.45628
vt 80.43874 -13.36548
vt 80.43874 -4.274483
vt 80.43874 4.816322
vt 80.43874 13.90732
vt 80.43874 22.99812
vt 80.43874 32.08912
vt 80.43874 41.17992
vt 80.43874 50.27092
vt 80.43874 59.36172
vt 80.43874 68.45272

vn 0 1 0

usemtl Lit
f 3/3/1 4/4/1 2/2/1 1/1/1
f 4/4/1 6/6/1 5/5/1 2/2/1
f 6/6/1 8/8/1 7/7/1 5/5/1
f 8/8/1 10/10/1 9/9/1 7/7/1
f 10/10/1 12/12/1 11/11/1 9/9/1
f 12/12/1 14/14/1 13/13/1 11/11/1
f 14/14/1 16/16/1 15/15/1 13/13/1
f 16/16/1 18/18/1 17/17/1 15/15/1
f 18/18/1 20/20/1 19/19/1 17/17/1
f 20/20/1 22/22/1 21/21/1 19/19/1
f 22/22/1 24/24/1 23/23/1 21/21/1
f 25/25/1 26/26/1 4/4/1 3/3/1
f 26/26/1 27/27/1 6/6/1 4/4/1
f 27/27/1 28/28/1 8/8/1 6/6/1
f 28/28/1 29/29/1 10/10/1 8/8/1
f 29/29/1 30/30/1 12/12/1 10/10/1
f 30/30/1 31/31/1 14/14/1 12/12/1
f 31/31/1 32/32/1 16/16/1 14/14/1
f 32/32/1 33/33/1 18/18/1 16/16/1
f 33/33/1 34/34/1 20/20/1 18/18/1
f 34/34/1 35/35/1 22/22/1 20/20/1
f 35/35/1 36/36/1 24/24/1 22/22/1
f 37/37/1 38/38/1 26/26/1 25/25/1
f 38/38/1 39/39/1 27/27/1 26/26/1
f 39/39/1 40/40/1 28/28/1 27/27/1
f 40/40/1 41/41/1 29/29/1 28/28/1
f 41/41/1 42/42/1 30/30/1 29/29/1
f 42/42/1 43/43/1 31/31/1 30/30/1
f 43/43/1 44/44/1 32/32/1 31/31/1
f 44/44/1 45/45/1 33/33/1 32/32/1
f 45/45/1 46/46/1 34/34/1 33/33/1
f 46/46/1 47/47/1 35/35/1 34/34/1
f 47/47/1 48/48/1 36/36/1 35/35/1
f 49/49/1 50/50/1 38/38/1 37/37/1
f 50/50/1 51/51/1 39/39/1 38/38/1
f 51/51/1 52/52/1 40/40/1 39/39/1
f 52/52/1 53/53/1 41/41/1 40/40/1
f 53/53/1 54/54/1 42/42/1 41/41/1
f 54/54/1 55/55/1 43/43/1 42/42/1
f 55/55/1 56/56/1 44/44/1 43/43/1
f 56/56/1 57/57/1 45/45/1 44/44/1
f 57/57/1 58/58/1 46/46/1 45/45/1
f 58/58/1 59/59/1 47/47/1 46/46/1
f 59/59/1 60/60/1 48/48/1 47/47/1
f 61/61/1 62/62/1 50/50/1 49/49/1
f 62/62/1 63/63/1 51/51/1 50/50/1
f 63/63/1 64/64/1 52/52/1 51/51/1
f 64/64/1 65/65/1 53/53/1 52/52/1
f 65/65/1 66/66/1 54/54/1 53/53/1
f 66/66/1 67/67/1 55/55/1 54/54/1
f 67/67/1 68/68/1 56/56/1 55/55/1
f 68/68/1 69/69/1 57/57/1 56/56/1
f 69/69/1 70/70/1 58/58/1 57/57/1
f 70/70/1 71/71/1 59/59/1 58/58/1
f 71/71/1 72/72/1 60/60/1 59/59/1
f 73/73/1 74/74/1 62/62/1 61/61/1
f 74/74/1 75/75/1 63/63/1 62/62/1
f 75/75/1 76/76/1 64/64/1 63/63/1
f 76/76/1 77/77/1 65/65/1 64/64/1
f 77/77/1 78/78/1 66/66/1 65/65/1
f 78/78/1 79/79/1 67/67/1 66/66/1
f 79/79/1 80/80/1 68/68/1 67/67/1
f 80/80/1 81/81/1 69/69/1 68/68/1
f 81/81/1 82/82/1 70/70/1 69/69/1
f 82/82/1 83/83/1 71/71/1 70/70/1
f 83/83/1 84/84/1 72/72/1 71/71/1
f 85/85/1 86/86/1 74/74/1 73/73/1
f 86/86/1 87/87/1 75/75/1 74/74/1
f 87/87/1 88/88/1 76/76/1 75/75/1
f 88/88/1 89/89/1 77/77/1 76/76/1
f 89/89/1 90/90/1 78/78/1 77/77/1
f 90/90/1 91/91/1 79/79/1 78/78/1
f 91/91/1 92/92/1 80/80/1 79/79/1
f 92/92/1 93/93/1 81/81/1 80/80/1
f 93/93/1 94/94/1 82/82/1 81/81/1
f 94/94/1 95/95/1 83/83/1 82/82/1
f 95/95/1 96/96/1 84/84/1 83/83/1
f 97/97/1 98/98/1 86/86/1 85/85/1
f 98/98/1 99/99/1 87/87/1 86/86/1
f 99/99/1 100/100/1 88/88/1 87/87/1
f 100/100/1 101/101/1 89/89/1 88/88/1
f 101/101/1 102/102/1 90/90/1 89/89/1
f 102/102/1 103/103/1 91/91/1 90/90/1
f 103/103/1 104/104/1 92/92/1 91/91/1
f 104/104/1 105/105/1 93/93/1 92/92/1
f 105/105/1 106/106/1 94/94/1 93/93/1
f 106/106/1 107/107/1 95/95/1 94/94/1
f 107/107/1 108/108/1 96/96/1 95/95/1
f 109/109/1 110/110/1 98/98/1 97/97/1
f 110/110/1 111/111/1 99/99/1 98/98/1
f 111/111/1 112/112/1 100/100/1 99/99/1
f 112/112/1 113/113/1 101/101/1 100/100/1
f 113/113/1 114/114/1 102/102/1 101/101/1
f 114/114/1 115/115/1 103/103/1 102/102/1
f 115/115/1 116/116/1 104/104/1 103/103/1
f 116/116/1 117/117/1 105/105/1 104/104/1
f 117/117/1 118/118/1 106/106/1 105/105/1
f 118/118/1 119/119/1 107/107/1 106/106/1
f 119/119/1 120/120/1 108/108/1 107/107/1
f 121/121/1 122/122/1 110/110/1 109/109/1
f 122/122/1 123/123/1 111/111/1 110/110/1
f 123/123/1 124/124/1 112/112/1 111/111/1
f 124/124/1 125/125/1 113/113/1 112/112/1
f 125/125/1 126/126/1 114/114/1 113/113/1
f 126/126/1 127/127/1 115/115/1 114/114/1
f 127/127/1 128/128/1 116/116/1 115/115/1
f 128/128/1 129/129/1 117/117/1 116/116/1
f 129/129/1 130/130/1 118/118/1 117/117/1
f 130/130/1 131/131/1 119/119/1 118/118/1
f 131/131/1 132/132/1 120/120/1 119/119/1
f 133/133/1 134/134/1 122/122/1 121/121/1
f 134/134/1 135/135/1 123/123/1 122/122/1
f 135/135/1 136/136/1 124/124/1 123/123/1
f 136/136/1 137/137/1 125/125/1 124/124/1
f 137/137/1 138/138/1 126/126/1 125/125/1
f 138/138/1 139/139/1 127/127/1 126/126/1
f 139/139/1 140/140/1 128/128/1 127/127/1
f 140/140/1 141/141/1 129/129/1 128/128/1
f 141/141/1 142/142/1 130/130/1 129/129/1
f 142/142/1 143/143/1 131/131/1 130/130/1
f 143/143/1 144/144/1 132/132/1 131/131/1

