g Brow
v 0.03948041 1.149778 0.1143754
v 0.03608372 1.149864 0.1158075
v 0.03618793 1.1524 0.1162431
v 0.03976634 1.152783 0.11468
v 0.04303114 1.149599 0.1126698
v 0.04336274 1.152814 0.1129508
v 0.04658187 1.149421 0.1107546
v 0.04695914 1.152675 0.1110133
v 0.05022603 1.149087 0.1085679
v 0.05065222 1.15218 0.1086991
v 0.05387018 1.14864 0.106167
v 0.05434531 1.151459 0.1061984
v 0.05729879 1.148064 0.1037999
v 0.05783046 1.150549 0.1037187
v 0.0607274 1.147298 0.1013128
v 0.06115757 1.149448 0.1011845
v 0.06390396 1.146451 0.09882858
v 0.06444721 1.148174 0.09857976
v 0.0675788 1.146614 0.09596226
v 0.06708052 1.145317 0.09626392
v 0.069872 1.144235 0.09377917
v 0.07017827 1.144954 0.0936235
v 0.07266348 1.143095 0.09115892
v 0.03078564 1.150948 0.1180098
v 0.03303945 1.151674 0.117387
v 0.0329345 1.14995 0.1170378
v 0.03072966 1.150009 0.1178349
v 0.02856605 1.150067 0.1186325
v -0.03948041 1.149778 0.1143754
v -0.03976634 1.152783 0.11468
v -0.03618793 1.1524 0.1162431
v -0.03608372 1.149864 0.1158075
v -0.04303114 1.149599 0.1126698
v -0.04336274 1.152814 0.1129508
v -0.04658187 1.149421 0.1107546
v -0.04695914 1.152675 0.1110133
v -0.05022603 1.149087 0.1085679
v -0.05065222 1.15218 0.1086991
v -0.05387018 1.14864 0.106167
v -0.05434531 1.151459 0.1061984
v -0.05729879 1.148064 0.1037999
v -0.05783046 1.150549 0.1037187
v -0.0607274 1.147298 0.1013128
v -0.06115757 1.149448 0.1011845
v -0.06390396 1.146451 0.09882858
v -0.06444721 1.148174 0.09857976
v -0.0675788 1.146614 0.09596226
v -0.06708052 1.145317 0.09626392
v -0.069872 1.144235 0.09377917
v -0.07017827 1.144954 0.0936235
v -0.07266348 1.143095 0.09115892
v -0.03078564 1.150948 0.1180098
v -0.03072966 1.150009 0.1178349
v -0.0329345 1.14995 0.1170378
v -0.03303945 1.151674 0.117387
v -0.02856605 1.150067 0.1186325
vt 0.2291005 0.978597
vt 0.219629 0.977341
vt 0.2198495 0.9843071
vt 0.2292775 0.987061
vt 0.23994 0.979854
vt 0.240211 0.9885755
vt 0.2507794 0.981111
vt 0.2511445 0.99009
vt 0.2620265 0.981738
vt 0.2625465 0.9900465
vt 0.2732735 0.982365
vt 0.2739485 0.990003
vt 0.2838375 0.982113
vt 0.284577 0.9889445
vt 0.2944015 0.981861
vt 0.2952054 0.987886
vt 0.3048505 0.9807075
vt 0.3055975 0.985553
vt 0.3159895 0.98322
vt 0.3152995 0.979554
vt 0.324746 0.977905
vt 0.3250909 0.979738
vt 0.3341925 0.976256
vt 0.2045825 0.9782354
vt 0.2104215 0.981553
vt 0.2101575 0.976085
vt 0.2044505 0.9755015
vt 0.1987435 0.974918
vt 0.2291005 0.978597
vt 0.2292775 0.987061
vt 0.2198495 0.9843071
vt 0.219629 0.977341
vt 0.23994 0.979854
vt 0.240211 0.9885755
vt 0.2507794 0.981111
vt 0.2511445 0.99009
vt 0.2620265 0.981738
vt 0.2625465 0.9900465
vt 0.2732735 0.982365
vt 0.2739485 0.990003
vt 0.2838375 0.982113
vt 0.284577 0.9889445
vt 0.2944015 0.981861
vt 0.2952054 0.987886
vt 0.3048505 0.9807075
vt 0.3055975 0.985553
vt 0.3159895 0.98322
vt 0.3152995 0.979554
vt 0.324746 0.977905
vt 0.3250909 0.979738
vt 0.3341925 0.976256
vt 0.2045825 0.9782354
vt 0.2044505 0.9755015
vt 0.2101575 0.976085
vt 0.2104215 0.981553
vt 0.1987435 0.974918
vn 0.4127638 -0.1370264 0.900472
vn 0.3829148 -0.163479 0.9092034
vn 0.3837244 -0.1625489 0.9090288
vn 0.4138683 -0.1362598 0.9000813
vn 0.4476831 -0.1254448 0.8853493
vn 0.4482621 -0.1254075 0.8850616
vn 0.4887359 -0.1204991 0.8640702
vn 0.4885487 -0.1205308 0.8641716
vn 0.5249598 -0.1112873 0.8438202
vn 0.5245473 -0.1114397 0.8440564
vn 0.5482939 -0.1019865 0.8300437
vn 0.5480806 -0.1020832 0.8301727
vn 0.5674037 -0.09140193 0.8183512
vn 0.5673169 -0.09145752 0.8184052
vn 0.5896719 -0.0791324 0.8037568
vn 0.5890792 -0.07939368 0.8041655
vn 0.6075608 -0.07180451 0.7910209
vn 0.6078923 -0.07169221 0.7907763
vn 0.6253184 -0.07431921 0.7768228
vn 0.6241676 -0.07371226 0.7778055
vn 0.6539867 -0.1166063 0.7474653
vn 0.6539868 -0.1166063 0.7474653
vn 0.6539868 -0.1166063 0.7474653
vn 0.324494 -0.2014711 0.9241824
vn 0.3539412 -0.1897028 0.9158267
vn 0.3518438 -0.1905528 0.9164581
vn 0.324494 -0.2014711 0.9241824
vn 0.3348588 -0.1917934 0.9225426
vn -0.4127674 -0.1370268 0.9004704
vn -0.4138722 -0.1362605 0.9000793
vn -0.3837229 -0.1625484 0.9090295
vn -0.3829136 -0.1634787 0.9092039
vn -0.4476895 -0.1254466 0.8853458
vn -0.4482685 -0.1254092 0.8850582
vn -0.4887356 -0.1204989 0.8640703
vn -0.4885483 -0.1205306 0.8641718
vn -0.5249562 -0.1112866 0.8438225
vn -0.5245437 -0.1114391 0.8440588
vn -0.5482889 -0.1019856 0.8300471
vn -0.5480755 -0.1020824 0.8301762
vn -0.5673984 -0.09140123 0.818355
vn -0.5673116 -0.09145684 0.8184089
vn -0.5896707 -0.07913224 0.8037577
vn -0.5890778 -0.07939351 0.8041666
vn -0.607561 -0.07180402 0.7910208
vn -0.6078923 -0.07169169 0.7907763
vn -0.6253135 -0.07431789 0.7768267
vn -0.624163 -0.07371098 0.7778092
vn -0.654011 -0.1166118 0.7474433
vn -0.654011 -0.1166119 0.7474433
vn -0.654011 -0.1166119 0.7474433
vn -0.3244895 -0.2014671 0.9241848
vn -0.3244895 -0.2014671 0.9241848
vn -0.3518467 -0.1905534 0.9164569
vn -0.3539446 -0.1897037 0.9158251
vn -0.3348747 -0.1918044 0.9225345
g Brow_0
f 3/3/3 2/2/2 1/1/1
f 4/4/4 3/3/3 1/1/1
f 4/4/4 1/1/1 5/5/5
f 6/6/6 4/4/4 5/5/5
f 6/6/6 5/5/5 7/7/7
f 8/8/8 6/6/6 7/7/7
f 7/7/7 9/9/9 8/8/8
f 9/9/9 10/10/10 8/8/8
f 9/9/9 11/11/11 10/10/10
f 11/11/11 12/12/12 10/10/10
f 11/11/11 13/13/13 12/12/12
f 13/13/13 14/14/14 12/12/12
f 13/13/13 15/15/15 14/14/14
f 15/15/15 16/16/16 14/14/14
f 15/15/15 17/17/17 16/16/16
f 17/17/17 18/18/18 16/16/16
f 18/18/18 17/17/17 19/19/19
f 17/17/17 20/20/20 19/19/19
f 19/19/19 20/20/20 21/21/21
f 22/22/22 19/19/19 21/21/21
f 21/21/21 23/23/23 22/22/22
f 26/26/26 25/25/25 24/24/24
f 27/27/27 26/26/26 24/24/24
f 25/25/25 26/26/26 2/2/2
f 3/3/3 25/25/25 2/2/2
f 24/24/24 28/28/28 27/27/27
f 31/31/31 30/30/30 29/29/29
f 32/32/32 31/31/31 29/29/29
f 29/29/29 30/30/30 33/33/33
f 30/30/30 34/34/34 33/33/33
f 33/33/33 34/34/34 35/35/35
f 34/34/34 36/36/36 35/35/35
f 37/37/37 35/35/35 36/36/36
f 38/38/38 37/37/37 36/36/36
f 39/39/39 37/37/37 38/38/38
f 40/40/40 39/39/39 38/38/38
f 41/41/41 39/39/39 40/40/40
f 42/42/42 41/41/41 40/40/40
f 43/43/43 41/41/41 42/42/42
f 44/44/44 43/43/43 42/42/42
f 45/45/45 43/43/43 44/44/44
f 46/46/46 45/45/45 44/44/44
f 45/45/45 46/46/46 47/47/47
f 48/48/48 45/45/45 47/47/47
f 48/48/48 47/47/47 49/49/49
f 47/47/47 50/50/50 49/49/49
f 51/51/51 49/49/49 50/50/50
f 54/54/54 53/53/53 52/52/52
f 55/55/55 54/54/54 52/52/52
f 54/54/54 55/55/55 32/32/32
f 55/55/55 31/31/31 32/32/32
f 56/56/56 52/52/52 53/53/53
