g EffectMesh
v -0.1292567 0.564374 -0.06888913
v 0 0.564374 -0.1124155
v 0 0.7196034 -0.06631784
v -0.09251335 0.7175834 -0.0360184
v 0 0.564374 0.1622095
v -0.1202919 0.564374 0.1186831
v -0.08773937 0.7088785 0.09455405
v 0 0.7068585 0.1248535
v -0.1355497 0.713231 0.02926783
v -0.189245 0.564374 0.02489698
v -0.09251335 0.7175834 -0.0360184
v -0.1292567 0.564374 -0.06888913
v -0.09251335 0.7175834 -0.0360184
v 0 0.7196034 -0.06631784
v 0 0.8075914 -0.05113609
v -0.07420419 0.8048227 -0.02620939
v 0 0.7068585 0.1248535
v -0.08773937 0.7088785 0.09455405
v -0.07008451 0.7928904 0.08780578
v 0 0.7901215 0.1139748
v -0.08773937 0.7088785 0.09455405
v -0.1355497 0.713231 0.02926783
v -0.1086425 0.7988566 0.03141937
v -0.07008451 0.7928904 0.08780578
v -0.1355497 0.713231 0.02926783
v -0.09251335 0.7175834 -0.0360184
v -0.07420419 0.8048227 -0.02620939
v -0.1086425 0.7988566 0.03141937
v 0 0.7901215 0.1139748
v -0.07008451 0.7928904 0.08780578
v -0.05630063 0.8796482 0.07703704
v 0 0.8770201 0.100852
v -0.0538788 0.9418941 0.06618851
v 0 0.9395196 0.08639592
v 0 0.8770201 0.100852
v -0.05630063 0.8796482 0.07703704
v -0.04154729 0.9898767 0.04754554
v 0 0.9858013 0.06539979
v -0.05630063 0.8796482 0.07703704
v -0.07008451 0.7928904 0.08780578
v -0.1086425 0.7988566 0.03141937
v -0.08242985 0.8853109 0.03075969
v -0.08242985 0.8853109 0.03075969
v -0.1270683 0.7983485 0.02421
v -0.1611332 0.8200249 0.03936852
v -0.08364316 0.9536451 0.03503623
v -0.1890851 0.838155 0.01198149
v -0.09805433 0.977325 0.00963852
v -0.1765967 0.834609 -0.03056403
v -0.08709105 0.9722332 -0.0293459
v -0.059219 0.9421278 -0.04211229
v -0.1410882 0.8109668 -0.04619752
v -0.1164508 0.7904624 -0.01836268
v -0.08242985 0.8853109 0.03075969
v -0.05706691 0.8909736 -0.02832467
v -0.08364316 0.9536451 0.03503623
v -0.09805433 0.977325 0.00963852
v -0.06412119 0.999826 0.0119476
v -0.04154729 0.9898767 0.04754554
v -0.08364316 0.9536451 0.03503623
v -0.0538788 0.9418941 0.06618851
v -0.05630063 0.8796482 0.07703704
v -0.08242985 0.8853109 0.03075969
v -0.04154729 0.9898767 0.04754554
v -0.05706691 0.8909736 -0.02832467
v -0.07420419 0.8048227 -0.02620939
v 0 0.8075914 -0.05113609
v 0 0.8936017 -0.04940626
v -0.059219 0.9421278 -0.04211229
v 0 0.9443402 -0.05264591
v 0 0.9980556 -0.0456444
v -0.0462986 0.9988928 -0.031052
v -0.05706691 0.8909736 -0.02832467
v 0 0.8936017 -0.04940626
v -0.1410882 0.8109668 -0.04619752
v -0.1164508 0.7904624 -0.01836268
v -0.05706691 0.8909736 -0.02832467
v -0.059219 0.9421278 -0.04211229
v -0.06412119 0.999826 0.0119476
v -0.09805433 0.977325 0.00963852
v -0.08709105 0.9722332 -0.0293459
v -0.0462986 0.9988928 -0.031052
v -0.0462986 0.9988928 -0.031052
v -0.08709105 0.9722332 -0.0293459
v -0.059219 0.9421278 -0.04211229
v -0.08242985 0.8853109 0.03075969
v -0.1086425 0.7988566 0.03141937
v -0.07420419 0.8048227 -0.02620939
v -0.05706691 0.8909736 -0.02832467
v 0.1292567 0.564374 -0.06888913
v 0.09251335 0.7175834 -0.0360184
v 0 0.7196034 -0.06631784
v 0 0.564374 -0.1124155
v 0 0.564374 0.1622095
v 0 0.7068585 0.1248535
v 0.08773937 0.7088785 0.09455405
v 0.1202919 0.564374 0.1186831
v 0.1355497 0.713231 0.02926783
v 0.189245 0.564374 0.02489698
v 0.09251335 0.7175834 -0.0360184
v 0.1292567 0.564374 -0.06888913
v 0.09251335 0.7175834 -0.0360184
v 0.07420419 0.8048227 -0.02620939
v 0 0.8075914 -0.05113609
v 0 0.7196034 -0.06631784
v 0 0.7068585 0.1248535
v 0 0.7901215 0.1139748
v 0.07008451 0.7928904 0.08780578
v 0.08773937 0.7088785 0.09455405
v 0.08773937 0.7088785 0.09455405
v 0.07008451 0.7928904 0.08780578
v 0.1086425 0.7988566 0.03141937
v 0.1355497 0.713231 0.02926783
v 0.1355497 0.713231 0.02926783
v 0.1086425 0.7988566 0.03141937
v 0.07420419 0.8048227 -0.02620939
v 0.09251335 0.7175834 -0.0360184
v 0 0.7901215 0.1139748
v 0 0.8770201 0.100852
v 0.05630063 0.8796482 0.07703704
v 0.07008451 0.7928904 0.08780578
v 0.0538788 0.9418941 0.06618851
v 0.05630063 0.8796482 0.07703704
v 0 0.8770201 0.100852
v 0 0.9395196 0.08639592
v 0.04154729 0.9898767 0.04754554
v 0 0.9858013 0.06539979
v 0.05630063 0.8796482 0.07703704
v 0.08242985 0.8853109 0.03075969
v 0.1086425 0.7988566 0.03141937
v 0.07008451 0.7928904 0.08780578
v 0.08242985 0.8853109 0.03075969
v 0.08364316 0.9536451 0.03503623
v 0.1611332 0.8200249 0.03936852
v 0.1270683 0.7983485 0.02421
v 0.1890851 0.838155 0.01198149
v 0.09805433 0.977325 0.00963852
v 0.1765967 0.834609 -0.03056403
v 0.08709105 0.9722332 -0.0293459
v 0.059219 0.9421278 -0.04211229
v 0.1410882 0.8109668 -0.04619752
v 0.1164508 0.7904624 -0.01836268
v 0.05706691 0.8909736 -0.02832467
v 0.1410882 0.8109668 -0.04619752
v 0.05706691 0.8909736 -0.02832467
v 0.059219 0.9421278 -0.04211229
v 0.08364316 0.9536451 0.03503623
v 0.04154729 0.9898767 0.04754554
v 0.06412119 0.999826 0.0119476
v 0.09805433 0.977325 0.00963852
v 0.08364316 0.9536451 0.03503623
v 0.08242985 0.8853109 0.03075969
v 0.05630063 0.8796482 0.07703704
v 0.0538788 0.9418941 0.06618851
v 0.04154729 0.9898767 0.04754554
v 0.05706691 0.8909736 -0.02832467
v 0 0.8936017 -0.04940626
v 0 0.8075914 -0.05113609
v 0.07420419 0.8048227 -0.02620939
v 0.059219 0.9421278 -0.04211229
v 0.0462986 0.9988928 -0.031052
v 0 0.9980556 -0.0456444
v 0 0.9443402 -0.05264591
v 0.05706691 0.8909736 -0.02832467
v 0 0.8936017 -0.04940626
v 0.06412119 0.999826 0.0119476
v 0.0462986 0.9988928 -0.031052
v 0.08709105 0.9722332 -0.0293459
v 0.09805433 0.977325 0.00963852
v 0.0462986 0.9988928 -0.031052
v 0.059219 0.9421278 -0.04211229
v 0.08709105 0.9722332 -0.0293459
v 0.08242985 0.8853109 0.03075969
v 0.05706691 0.8909736 -0.02832467
v 0.07420419 0.8048227 -0.02620939
v 0.1086425 0.7988566 0.03141937
vt 0.3854167 0.3125
vt 0.4166667 0.3125
vt 0.4166667 0.6884398
vt 0.3854167 0.6884398
vt 0.5416667 0.3125
vt 0.5729166 0.3125
vt 0.5729166 0.6884398
vt 0.5416667 0.6884398
vt 0.6041666 0.6884398
vt 0.6041666 0.3125
vt 0.6249999 0.6884398
vt 0.6249999 0.3125
vt 0 0
vt 1 0
vt 1 1
vt 0 1
vt 0 0
vt 1 0
vt 1 1
vt 0 1
vt 0 0
vt 1 0
vt 1 1
vt 0 1
vt 0 0
vt 1 0
vt 1 1
vt 0 1
vt 0 0
vt 1 0
vt 1 1
vt 0 1
vt 1 0.5798221
vt 0 0.5745436
vt 0 0
vt 1 0
vt 1 1
vt 0 1
vt 0 1
vt 0 0
vt 1 0
vt 1 1
vt 0.4583333 0.6884398
vt 0.4583333 0.3125
vt 0.5 0.3125
vt 0.5 0.6884398
vt 0.5416666 0.3125
vt 0.5416666 0.6884398
vt 0.5833333 0.3125
vt 0.5833333 0.6884398
vt 0.625 0.6884398
vt 0.625 0.3125
vt 0.4166667 0.3125
vt 0.4583333 0.6884398
vt 0.4166667 0.6884398
vt 0 0
vt 1 0
vt 1 1
vt 0 1
vt 0 1
vt 0.4460633 3.874302E-07
vt 1 0
vt 1 1
vt 0 0
vt 0 1
vt 0 0
vt 1 0
vt 1 1
vt 3.262298E-07 0.6252116
vt 1 0.6080455
vt 1 1
vt 0 1
vt 0 0
vt 1 0
vt 0.375 0.3125
vt 0.4166667 0.3125
vt 0.4166667 0.6884398
vt 0.375 0.6884398
vt 0 1
vt 0 0
vt 1 0
vt 1 1
vt 0.5 1
vt 0 0
vt 1 0
vt 0 1
vt 0 0
vt 1 0
vt 1 1
vt 0.3854167 0.3125
vt 0.3854167 0.6884398
vt 0.4166667 0.6884398
vt 0.4166667 0.3125
vt 0.5416667 0.3125
vt 0.5416667 0.6884398
vt 0.5729166 0.6884398
vt 0.5729166 0.3125
vt 0.6041666 0.6884398
vt 0.6041666 0.3125
vt 0.6249999 0.6884398
vt 0.6249999 0.3125
vt 0 0
vt 0 1
vt 1 1
vt 1 0
vt 0 0
vt 0 1
vt 1 1
vt 1 0
vt 0 0
vt 0 1
vt 1 1
vt 1 0
vt 0 0
vt 0 1
vt 1 1
vt 1 0
vt 0 0
vt 0 1
vt 1 1
vt 1 0
vt 1 0.5798221
vt 1 0
vt 0 0
vt 0 0.5745436
vt 1 1
vt 0 1
vt 0 1
vt 1 1
vt 1 0
vt 0 0
vt 0.4583333 0.6884398
vt 0.5 0.6884398
vt 0.5 0.3125
vt 0.4583333 0.3125
vt 0.5416666 0.3125
vt 0.5416666 0.6884398
vt 0.5833333 0.3125
vt 0.5833333 0.6884398
vt 0.625 0.6884398
vt 0.625 0.3125
vt 0.4166667 0.3125
vt 0.4166667 0.6884398
vt 0.375 0.3125
vt 0.4166667 0.6884398
vt 0.375 0.6884398
vt 0 0
vt 0 1
vt 1 1
vt 1 0
vt 0 1
vt 1 1
vt 1 0
vt 0.4460633 3.874302E-07
vt 0 0
vt 0 1
vt 1 1
vt 1 0
vt 0 0
vt 3.262298E-07 0.6252116
vt 0 1
vt 1 1
vt 1 0.6080455
vt 0 0
vt 1 0
vt 0 1
vt 1 1
vt 1 0
vt 0 0
vt 0.5 1
vt 1 0
vt 0 0
vt 0 1
vt 1 1
vt 1 0
vt 0 0
vn -0.5656423 0.3014001 -0.7675981
vn 0 0.2838307 -0.9588744
vn 0 0.2536489 -0.9672962
vn -0.559581 0.2783051 -0.7806506
vn 0 0.2463782 0.9691738
vn -0.5742147 0.2604943 0.7761573
vn -0.5655782 0.2389303 0.7893248
vn 0 0.217117 0.9761456
vn -0.9449828 0.3248318 0.03862242
vn -0.9401145 0.3400519 0.02344131
vn -0.559581 0.2783051 -0.7806506
vn -0.5656423 0.3014001 -0.7675981
vn -0.559581 0.2783051 -0.7806506
vn 0 0.2536489 -0.9672962
vn 0 0.1136095 -0.9935255
vn -0.6167955 0.1839515 -0.7653268
vn 0 0.217117 0.9761456
vn -0.5655782 0.2389303 0.7893248
vn -0.5813232 0.1885016 0.7915368
vn 0 0.1518842 0.9883983
vn -0.5655782 0.2389303 0.7893248
vn -0.9449828 0.3248318 0.03862242
vn -0.9620126 0.2682868 0.05053537
vn -0.5813232 0.1885016 0.7915368
vn -0.9449828 0.3248318 0.03862242
vn -0.559581 0.2783051 -0.7806506
vn -0.6167955 0.1839515 -0.7653268
vn -0.9620126 0.2682868 0.05053537
vn 0 0.1518842 0.9883983
vn -0.5813232 0.1885016 0.7915368
vn -0.5911857 0.17573 0.7871584
vn 0 0.1801133 0.9836459
vn -0.5480219 0.2156965 0.808175
vn 0 0.2883012 0.9575397
vn 0 0.1801133 0.9836459
vn -0.5911857 0.17573 0.7871584
vn -0.4231282 0.4544409 0.7838661
vn 0 0.4242814 0.9055304
vn -0.5911857 0.17573 0.7871584
vn -0.5813232 0.1885016 0.7915368
vn -0.9620126 0.2682868 0.05053537
vn -0.4277556 -0.092534 0.8991454
vn -0.4277556 -0.092534 0.8991454
vn 0.6497924 -0.3614812 0.6686563
vn -0.2438332 0.1638794 0.9558709
vn -0.5536233 0.2971999 0.7779291
vn -0.8104025 0.5271472 0.2556627
vn -0.7835401 0.5971529 0.171678
vn -0.6085807 0.4043553 -0.6827345
vn -0.6016724 0.4758728 -0.6415104
vn -0.1711419 0.06212338 -0.9832858
vn 0.05926366 -0.02986482 -0.9977955
vn 0.8438695 -0.4889933 -0.2208387
vn -0.4277556 -0.092534 0.8991454
vn -0.001980325 -0.2136893 -0.9768996
vn -0.5536233 0.2971999 0.7779291
vn -0.7835401 0.5971529 0.171678
vn -0.6067898 0.7615103 0.2278336
vn -0.4231282 0.4544409 0.7838661
vn -0.5536233 0.2971999 0.7779291
vn -0.5480219 0.2156965 0.808175
vn -0.5911857 0.17573 0.7871584
vn -0.4277556 -0.092534 0.8991454
vn -0.4231282 0.4544409 0.7838661
vn -0.001980325 -0.2136893 -0.9768996
vn -0.6167955 0.1839515 -0.7653268
vn 0 0.1136095 -0.9935255
vn 0 -0.04108946 -0.9991554
vn -0.1711419 0.06212338 -0.9832858
vn 0 0.01137777 -0.9999353
vn 0 0.1881993 -0.9821308
vn -0.3458091 0.4042142 -0.8467744
vn -0.001980325 -0.2136893 -0.9768996
vn 0 -0.04108946 -0.9991554
vn 0.05926366 -0.02986482 -0.9977955
vn 0.8438695 -0.4889933 -0.2208387
vn -0.001980325 -0.2136893 -0.9768996
vn -0.1711419 0.06212338 -0.9832858
vn -0.6067898 0.7615103 0.2278336
vn -0.7835401 0.5971529 0.171678
vn -0.6016724 0.4758728 -0.6415104
vn -0.3458091 0.4042142 -0.8467744
vn -0.3458091 0.4042142 -0.8467744
vn -0.6016724 0.4758728 -0.6415104
vn -0.1711419 0.06212338 -0.9832858
vn -0.4277556 -0.092534 0.8991454
vn -0.9620126 0.2682868 0.05053537
vn -0.6167955 0.1839515 -0.7653268
vn -0.001980325 -0.2136893 -0.9768996
vn 0.5656421 0.3014001 -0.7675982
vn 0.5595809 0.2783051 -0.7806507
vn 0 0.2536489 -0.9672962
vn 0 0.2838307 -0.9588744
vn 0 0.2463782 0.9691738
vn 0 0.217117 0.9761456
vn 0.5655782 0.2389304 0.7893248
vn 0.5742147 0.2604943 0.7761573
vn 0.9449828 0.3248318 0.03862242
vn 0.9401145 0.3400518 0.02344125
vn 0.5595809 0.2783051 -0.7806507
vn 0.5656421 0.3014001 -0.7675982
vn 0.5595809 0.2783051 -0.7806507
vn 0.6167955 0.1839515 -0.7653268
vn 0 0.1136095 -0.9935255
vn 0 0.2536489 -0.9672962
vn 0 0.217117 0.9761456
vn 0 0.1518842 0.9883983
vn 0.5813232 0.1885016 0.7915368
vn 0.5655782 0.2389304 0.7893248
vn 0.5655782 0.2389304 0.7893248
vn 0.5813232 0.1885016 0.7915368
vn 0.9620126 0.2682868 0.05053553
vn 0.9449828 0.3248318 0.03862242
vn 0.9449828 0.3248318 0.03862242
vn 0.9620126 0.2682868 0.05053553
vn 0.6167955 0.1839515 -0.7653268
vn 0.5595809 0.2783051 -0.7806507
vn 0 0.1518842 0.9883983
vn 0 0.1801133 0.9836459
vn 0.5911857 0.17573 0.7871585
vn 0.5813232 0.1885016 0.7915368
vn 0.5480219 0.2156965 0.808175
vn 0.5911857 0.17573 0.7871585
vn 0 0.1801133 0.9836459
vn 0 0.2883012 0.9575397
vn 0.4231281 0.4544407 0.7838662
vn 0 0.4242814 0.9055304
vn 0.5911857 0.17573 0.7871585
vn 0.4277557 -0.09253404 0.8991454
vn 0.9620126 0.2682868 0.05053553
vn 0.5813232 0.1885016 0.7915368
vn 0.4277557 -0.09253404 0.8991454
vn 0.5536231 0.2971998 0.7779292
vn 0.243833 0.1638793 0.9558709
vn -0.6497926 -0.3614813 0.668656
vn 0.8104025 0.5271472 0.2556628
vn 0.7835401 0.5971528 0.1716781
vn 0.6085807 0.4043553 -0.6827345
vn 0.6016722 0.4758728 -0.6415104
vn 0.1711418 0.0621233 -0.983286
vn -0.05926384 -0.02986494 -0.9977955
vn -0.8438694 -0.4889933 -0.2208392
vn 0.001980271 -0.2136893 -0.9768996
vn -0.05926384 -0.02986494 -0.9977955
vn 0.001980271 -0.2136893 -0.9768996
vn 0.1711418 0.0621233 -0.983286
vn 0.5536231 0.2971998 0.7779292
vn 0.4231281 0.4544407 0.7838662
vn 0.6067897 0.7615103 0.2278339
vn 0.7835401 0.5971528 0.1716781
vn 0.5536231 0.2971998 0.7779292
vn 0.4277557 -0.09253404 0.8991454
vn 0.5911857 0.17573 0.7871585
vn 0.5480219 0.2156965 0.808175
vn 0.4231281 0.4544407 0.7838662
vn 0.001980271 -0.2136893 -0.9768996
vn 0 -0.04108946 -0.9991554
vn 0 0.1136095 -0.9935255
vn 0.6167955 0.1839515 -0.7653268
vn 0.1711418 0.0621233 -0.983286
vn 0.3458091 0.4042142 -0.8467744
vn 0 0.1881993 -0.9821308
vn 0 0.01137777 -0.9999353
vn 0.001980271 -0.2136893 -0.9768996
vn 0 -0.04108946 -0.9991554
vn 0.6067897 0.7615103 0.2278339
vn 0.3458091 0.4042142 -0.8467744
vn 0.6016722 0.4758728 -0.6415104
vn 0.7835401 0.5971528 0.1716781
vn 0.3458091 0.4042142 -0.8467744
vn 0.1711418 0.0621233 -0.983286
vn 0.6016722 0.4758728 -0.6415104
vn 0.4277557 -0.09253404 0.8991454
vn 0.001980271 -0.2136893 -0.9768996
vn 0.6167955 0.1839515 -0.7653268
vn 0.9620126 0.2682868 0.05053553
g EffectMesh_0
f 3/3/3 2/2/2 1/1/1
f 4/4/4 3/3/3 1/1/1
f 7/7/7 6/6/6 5/5/5
f 8/8/8 7/7/7 5/5/5
f 7/7/7 9/9/9 6/6/6
f 9/9/9 10/10/10 6/6/6
f 9/9/9 11/11/11 10/10/10
f 11/11/11 12/12/12 10/10/10
f 15/15/15 14/14/14 13/13/13
f 16/16/16 15/15/15 13/13/13
f 19/19/19 18/18/18 17/17/17
f 20/20/20 19/19/19 17/17/17
f 23/23/23 22/22/22 21/21/21
f 24/24/24 23/23/23 21/21/21
f 27/27/27 26/26/26 25/25/25
f 28/28/28 27/27/27 25/25/25
f 31/31/31 30/30/30 29/29/29
f 32/32/32 31/31/31 29/29/29
f 35/35/35 34/34/34 33/33/33
f 36/36/36 35/35/35 33/33/33
f 37/37/37 33/33/33 34/34/34
f 38/38/38 37/37/37 34/34/34
f 41/41/41 40/40/40 39/39/39
f 42/42/42 41/41/41 39/39/39
f 45/45/45 44/44/44 43/43/43
f 46/46/46 45/45/45 43/43/43
f 47/47/47 45/45/45 46/46/46
f 48/48/48 47/47/47 46/46/46
f 49/49/49 47/47/47 48/48/48
f 50/50/50 49/49/49 48/48/48
f 50/50/50 51/51/51 49/49/49
f 51/51/51 52/52/52 49/49/49
f 54/54/54 44/44/44 53/53/53
f 55/55/55 54/54/54 53/53/53
f 58/58/58 57/57/57 56/56/56
f 59/59/59 58/58/58 56/56/56
f 62/62/62 61/61/61 60/60/60
f 63/63/63 62/62/62 60/60/60
f 64/64/64 60/60/60 61/61/61
f 67/67/67 66/66/66 65/65/65
f 68/68/68 67/67/67 65/65/65
f 71/71/71 70/70/70 69/69/69
f 72/72/72 71/71/71 69/69/69
f 73/73/73 69/69/69 70/70/70
f 74/74/74 73/73/73 70/70/70
f 77/77/77 76/76/76 75/75/75
f 78/78/78 77/77/77 75/75/75
f 81/81/81 80/80/80 79/79/79
f 82/82/82 81/81/81 79/79/79
f 85/85/85 84/84/84 83/83/83
f 88/88/88 87/87/87 86/86/86
f 89/89/89 88/88/88 86/86/86
f 92/92/92 91/91/91 90/90/90
f 93/93/93 92/92/92 90/90/90
f 96/96/96 95/95/95 94/94/94
f 97/97/97 96/96/96 94/94/94
f 98/98/98 96/96/96 97/97/97
f 99/99/99 98/98/98 97/97/97
f 100/100/100 98/98/98 99/99/99
f 101/101/101 100/100/100 99/99/99
f 104/104/104 103/103/103 102/102/102
f 105/105/105 104/104/104 102/102/102
f 108/108/108 107/107/107 106/106/106
f 109/109/109 108/108/108 106/106/106
f 112/112/112 111/111/111 110/110/110
f 113/113/113 112/112/112 110/110/110
f 116/116/116 115/115/115 114/114/114
f 117/117/117 116/116/116 114/114/114
f 120/120/120 119/119/119 118/118/118
f 121/121/121 120/120/120 118/118/118
f 124/124/124 123/123/123 122/122/122
f 125/125/125 124/124/124 122/122/122
f 122/122/122 126/126/126 125/125/125
f 126/126/126 127/127/127 125/125/125
f 130/130/130 129/129/129 128/128/128
f 131/131/131 130/130/130 128/128/128
f 134/134/134 133/133/133 132/132/132
f 135/135/135 134/134/134 132/132/132
f 134/134/134 136/136/136 133/133/133
f 136/136/136 137/137/137 133/133/133
f 136/136/136 138/138/138 137/137/137
f 138/138/138 139/139/139 137/137/137
f 140/140/140 139/139/139 138/138/138
f 141/141/141 140/140/140 138/138/138
f 135/135/135 132/132/132 142/142/142
f 132/132/132 143/143/143 142/142/142
f 142/142/142 145/145/145 144/144/144
f 145/145/145 146/146/146 144/144/144
f 149/149/149 148/148/148 147/147/147
f 150/150/150 149/149/149 147/147/147
f 153/153/153 152/152/152 151/151/151
f 154/154/154 153/153/153 151/151/151
f 151/151/151 155/155/155 154/154/154
f 158/158/158 157/157/157 156/156/156
f 159/159/159 158/158/158 156/156/156
f 162/162/162 161/161/161 160/160/160
f 163/163/163 162/162/162 160/160/160
f 160/160/160 164/164/164 163/163/163
f 164/164/164 165/165/165 163/163/163
f 168/168/168 167/167/167 166/166/166
f 169/169/169 168/168/168 166/166/166
f 172/172/172 171/171/171 170/170/170
f 175/175/175 174/174/174 173/173/173
f 176/176/176 175/175/175 173/173/173
