g EyeStar
v 0.0421225 1.108037 0.09330154
v 0.04487592 1.113259 0.09259014
v 0.04476023 1.107964 0.09245393
v 0.04741238 1.10789 0.09160173
v 0.04466846 1.103408 0.09234592
v 0.05022756 1.103327 0.09056188
v 0.05009346 1.097492 0.09040231
v 0.04453323 1.097572 0.09218669
v 0.05391353 1.097437 0.08917643
v 0.05398305 1.1002 0.0892501
v 0.05835439 1.097373 0.08775128
v 0.05384393 1.09467 0.08910272
v 0.04439801 1.091736 0.09202746
v 0.04995715 1.091656 0.09024351
v 0.04432682 1.088123 0.09194364
v 0.04718472 1.088114 0.0910277
v 0.04419056 1.081885 0.09178322
v 0.04148408 1.088131 0.09285482
v 0.03910932 1.103487 0.09412985
v 0.03897301 1.097652 0.09397106
v 0.03883891 1.091817 0.09381149
v 0.03573856 1.097699 0.09500903
v 0.03567653 1.094784 0.09492776
v 0.03071209 1.097771 0.09662212
v 0.03580054 1.100611 0.09509022
v -0.04212249 1.108037 0.09330154
v -0.04476023 1.107964 0.09245393
v -0.04487593 1.113259 0.09259014
v -0.04741237 1.10789 0.09160173
v -0.04466846 1.103408 0.09234592
v -0.05022756 1.103327 0.09056188
v -0.05009346 1.097492 0.09040231
v -0.04453323 1.097572 0.09218669
v -0.05391353 1.097437 0.08917643
v -0.05398305 1.1002 0.0892501
v -0.05835439 1.097373 0.08775128
v -0.05384393 1.09467 0.08910272
v -0.04439801 1.091736 0.09202746
v -0.04995715 1.091656 0.09024351
v -0.04432682 1.088123 0.09194364
v -0.04718472 1.088114 0.0910277
v -0.04419056 1.081885 0.09178322
v -0.04148408 1.088131 0.09285482
v -0.03910932 1.103487 0.09412985
v -0.03897301 1.097652 0.09397106
v -0.03883891 1.091817 0.09381149
v -0.03573856 1.097699 0.09500903
v -0.03567653 1.094784 0.09492776
v -0.03071209 1.097771 0.09662212
v -0.03580054 1.100611 0.09509022
vt 0.01434984 0.02459079
vt 0.01636218 0.03302488
vt 0.01636218 0.02459079
vt 0.01838357 0.02459079
vt 0.01636218 0.02173483
vt 0.02059163 0.02173483
vt 0.02059163 0.01755156
vt 0.01636218 0.01755156
vt 0.02345156 0.01755156
vt 0.02344816 0.01955444
vt 0.02893557 0.01755156
vt 0.02345703 0.01554546
vt 0.01636218 0.01322802
vt 0.02059163 0.01322802
vt 0.01636218 0.01095737
vt 0.01855302 0.01095737
vt 0.01636218 0.001938171
vt 0.01417818 0.01095737
vt 0.01202267 0.02173483
vt 0.01202267 0.01755156
vt 0.01202267 0.01322802
vt 0.009548405 0.01755156
vt 0.00954541 0.01541426
vt 0.003616581 0.01755156
vt 0.00955593 0.01968319
vt 0.01434984 0.02459079
vt 0.01636218 0.02459079
vt 0.01636218 0.03302488
vt 0.01838357 0.02459079
vt 0.01636218 0.02173483
vt 0.02059163 0.02173483
vt 0.02059163 0.01755156
vt 0.01636218 0.01755156
vt 0.02345156 0.01755156
vt 0.02344816 0.01955444
vt 0.02893557 0.01755156
vt 0.02345703 0.01554546
vt 0.01636218 0.01322802
vt 0.02059163 0.01322802
vt 0.01636218 0.01095737
vt 0.01855302 0.01095737
vt 0.01636218 0.001938171
vt 0.01417818 0.01095737
vt 0.01202267 0.02173483
vt 0.01202267 0.01755156
vt 0.01202267 0.01322802
vt 0.009548405 0.01755156
vt 0.00954541 0.01541426
vt 0.003616581 0.01755156
vt 0.00955593 0.01968319
vn 0.3049919 -0.03114435 0.9518455
vn 0.3049861 -0.03114443 0.9518475
vn 0.3049859 -0.03114443 0.9518475
vn 0.3049801 -0.0311445 0.9518493
vn 0.3049674 -0.03303267 0.9517897
vn 0.3049698 -0.03303669 0.951789
vn 0.3049657 -0.03303271 0.9517902
vn 0.3049667 -0.03303251 0.9517899
vn 0.3049773 -0.03304151 0.9517862
vn 0.3049746 -0.03304446 0.951787
vn 0.3049773 -0.03304151 0.9517862
vn 0.30498 -0.03303856 0.9517855
vn 0.3049661 -0.03303235 0.9517902
vn 0.3049618 -0.03302874 0.9517918
vn 0.3049815 -0.03113935 0.9518491
vn 0.3049621 -0.03113926 0.9518552
vn 0.3049816 -0.03113935 0.951849
vn 0.3050012 -0.03113944 0.9518427
vn 0.3049652 -0.03302865 0.9517907
vn 0.3049678 -0.03303231 0.9517897
vn 0.3049704 -0.03303597 0.9517887
vn 0.3049622 -0.03302797 0.9517916
vn 0.3049572 -0.0330291 0.9517931
vn 0.3049622 -0.03302796 0.9517916
vn 0.3049672 -0.03302682 0.95179
vn -0.304992 -0.03114515 0.9518454
vn -0.3049894 -0.03114545 0.9518464
vn -0.3049894 -0.03114544 0.9518464
vn -0.3049867 -0.03114573 0.9518471
vn -0.3049673 -0.0330324 0.9517898
vn -0.3049702 -0.03303666 0.9517887
vn -0.3049682 -0.03303289 0.9517895
vn -0.3049678 -0.03303255 0.9517896
vn -0.3049777 -0.03304167 0.9517862
vn -0.3049763 -0.03304482 0.9517866
vn -0.3049777 -0.03304169 0.9517862
vn -0.3049791 -0.03303856 0.9517857
vn -0.3049682 -0.03303271 0.9517895
vn -0.3049663 -0.03302912 0.9517902
vn -0.3049825 -0.0311394 0.9518487
vn -0.3049621 -0.03113926 0.9518552
vn -0.3049827 -0.0311394 0.9518487
vn -0.3050033 -0.03113954 0.9518421
vn -0.3049645 -0.03302816 0.9517909
vn -0.3049673 -0.03303222 0.9517898
vn -0.3049702 -0.0330363 0.9517887
vn -0.3049675 -0.03302835 0.9517899
vn -0.3049655 -0.03302965 0.9517905
vn -0.3049674 -0.03302834 0.9517899
vn -0.3049695 -0.03302705 0.9517893
g EyeStar_0
f 3/3/3 2/2/2 1/1/1
f 4/4/4 2/2/2 3/3/3
f 3/3/3 5/5/5 4/4/4
f 3/3/3 1/1/1 5/5/5
f 5/5/5 6/6/6 4/4/4
f 7/7/7 6/6/6 5/5/5
f 8/8/8 7/7/7 5/5/5
f 6/6/6 7/7/7 9/9/9
f 10/10/10 6/6/6 9/9/9
f 9/9/9 11/11/11 10/10/10
f 12/12/12 11/11/11 9/9/9
f 9/9/9 7/7/7 12/12/12
f 8/8/8 13/13/13 7/7/7
f 13/13/13 14/14/14 7/7/7
f 7/7/7 14/14/14 12/12/12
f 14/14/14 13/13/13 15/15/15
f 16/16/16 14/14/14 15/15/15
f 15/15/15 17/17/17 16/16/16
f 18/18/18 17/17/17 15/15/15
f 15/15/15 13/13/13 18/18/18
f 5/5/5 19/19/19 8/8/8
f 19/19/19 20/20/20 8/8/8
f 1/1/1 19/19/19 5/5/5
f 21/21/21 13/13/13 8/8/8
f 20/20/20 21/21/21 8/8/8
f 13/13/13 21/21/21 18/18/18
f 21/21/21 20/20/20 22/22/22
f 23/23/23 21/21/21 22/22/22
f 22/22/22 24/24/24 23/23/23
f 25/25/25 24/24/24 22/22/22
f 20/20/20 19/19/19 25/25/25
f 22/22/22 20/20/20 25/25/25
f 28/28/28 27/27/27 26/26/26
f 28/28/28 29/29/29 27/27/27
f 30/30/30 27/27/27 29/29/29
f 26/26/26 27/27/27 30/30/30
f 31/31/31 30/30/30 29/29/29
f 31/31/31 32/32/32 30/30/30
f 32/32/32 33/33/33 30/30/30
f 32/32/32 31/31/31 34/34/34
f 31/31/31 35/35/35 34/34/34
f 36/36/36 34/34/34 35/35/35
f 36/36/36 37/37/37 34/34/34
f 32/32/32 34/34/34 37/37/37
f 38/38/38 33/33/33 32/32/32
f 39/39/39 38/38/38 32/32/32
f 39/39/39 32/32/32 37/37/37
f 38/38/38 39/39/39 40/40/40
f 39/39/39 41/41/41 40/40/40
f 42/42/42 40/40/40 41/41/41
f 42/42/42 43/43/43 40/40/40
f 38/38/38 40/40/40 43/43/43
f 44/44/44 30/30/30 33/33/33
f 45/45/45 44/44/44 33/33/33
f 44/44/44 26/26/26 30/30/30
f 46/46/46 45/45/45 33/33/33
f 38/38/38 46/46/46 33/33/33
f 46/46/46 38/38/38 43/43/43
f 45/45/45 46/46/46 47/47/47
f 46/46/46 48/48/48 47/47/47
f 49/49/49 47/47/47 48/48/48
f 49/49/49 50/50/50 47/47/47
f 45/45/45 47/47/47 50/50/50
f 44/44/44 45/45/45 50/50/50
