# ProBuilder 5.0.6
# https://unity3d.com/unity/features/worldbuilding/probuilder
# 07/23/2022 17:04:24

mtllib ./Ocean_Plane_LOD2.mtl
o Ocean Plane LOD2

g Ocean Plane LOD2
v 69.56126 -7.152557E-07 -81.54727
v 69.56126 -7.152557E-07 -48.21407
v 36.22806 -7.152557E-07 -81.54727
v 36.22806 -7.152557E-07 -48.21407
v 69.56126 -7.152557E-07 -14.88048
v 36.22806 -7.152557E-07 -14.88048
v 69.56126 -7.152557E-07 18.45273
v 36.22806 -7.152557E-07 18.45273
v 69.56126 -7.152557E-07 51.78593
v 36.22806 -7.152557E-07 51.78593
v 69.56126 -7.152557E-07 85.11952
v 36.22806 -7.152557E-07 85.11952
v 69.56126 -7.152557E-07 118.4527
v 36.22806 -7.152557E-07 118.4527
v 2.894474 -7.152557E-07 -81.54727
v 2.894474 -7.152557E-07 -48.21407
v 2.894474 -7.152557E-07 -14.88048
v 2.894474 -7.152557E-07 18.45273
v 2.894474 -7.152557E-07 51.78593
v 2.894474 -7.152557E-07 85.11952
v 2.894474 -7.152557E-07 118.4527
v -30.43873 -7.152557E-07 -81.54727
v -30.43873 -7.152557E-07 -48.21407
v -30.43873 -7.152557E-07 -14.88048
v -30.43873 -7.152557E-07 18.45273
v -30.43873 -7.152557E-07 51.78593
v -30.43873 -7.152557E-07 85.11952
v -30.43873 -7.152557E-07 118.4527
v -63.77194 -7.152557E-07 -81.54727
v -63.77194 -7.152557E-07 -48.21407
v -63.77194 -7.152557E-07 -14.88048
v -63.77194 -7.152557E-07 18.45273
v -63.77194 -7.152557E-07 51.78593
v -63.77194 -7.152557E-07 85.11952
v -63.77194 -7.152557E-07 118.4527
v -97.10553 -7.152557E-07 -81.54727
v -97.10553 -7.152557E-07 -48.21407
v -97.10553 -7.152557E-07 -14.88048
v -97.10553 -7.152557E-07 18.45273
v -97.10553 -7.152557E-07 51.78593
v -97.10553 -7.152557E-07 85.11952
v -97.10553 -7.152557E-07 118.4527
v -130.4387 -7.152557E-07 -81.54727
v -130.4387 -7.152557E-07 -48.21407
v -130.4387 -7.152557E-07 -14.88048
v -130.4387 -7.152557E-07 18.45273
v -130.4387 -7.152557E-07 51.78593
v -130.4387 -7.152557E-07 85.11952
v -130.4387 -7.152557E-07 118.4527

vt -69.56126 -81.54727
vt -69.56126 -48.21407
vt -36.22806 -81.54727
vt -36.22806 -48.21407
vt -69.56126 -14.88048
vt -36.22806 -14.88048
vt -69.56126 18.45273
vt -36.22806 18.45273
vt -69.56126 51.78593
vt -36.22806 51.78593
vt -69.56126 85.11952
vt -36.22806 85.11952
vt -69.56126 118.4527
vt -36.22806 118.4527
vt -2.894474 -81.54727
vt -2.894474 -48.21407
vt -2.894474 -14.88048
vt -2.894474 18.45273
vt -2.894474 51.78593
vt -2.894474 85.11952
vt -2.894474 118.4527
vt 30.43873 -81.54727
vt 30.43873 -48.21407
vt 30.43873 -14.88048
vt 30.43873 18.45273
vt 30.43873 51.78593
vt 30.43873 85.11952
vt 30.43873 118.4527
vt 63.77194 -81.54727
vt 63.77194 -48.21407
vt 63.77194 -14.88048
vt 63.77194 18.45273
vt 63.77194 51.78593
vt 63.77194 85.11952
vt 63.77194 118.4527
vt 97.10553 -81.54727
vt 97.10553 -48.21407
vt 97.10553 -14.88048
vt 97.10553 18.45273
vt 97.10553 51.78593
vt 97.10553 85.11952
vt 97.10553 118.4527
vt 130.4387 -81.54727
vt 130.4387 -48.21407
vt 130.4387 -14.88048
vt 130.4387 18.45273
vt 130.4387 51.78593
vt 130.4387 85.11952
vt 130.4387 118.4527

vn 0 1 0

usemtl Lit
f 3/3/1 4/4/1 2/2/1 1/1/1
f 4/4/1 6/6/1 5/5/1 2/2/1
f 6/6/1 8/8/1 7/7/1 5/5/1
f 8/8/1 10/10/1 9/9/1 7/7/1
f 10/10/1 12/12/1 11/11/1 9/9/1
f 12/12/1 14/14/1 13/13/1 11/11/1
f 15/15/1 16/16/1 4/4/1 3/3/1
f 16/16/1 17/17/1 6/6/1 4/4/1
f 17/17/1 18/18/1 8/8/1 6/6/1
f 18/18/1 19/19/1 10/10/1 8/8/1
f 19/19/1 20/20/1 12/12/1 10/10/1
f 20/20/1 21/21/1 14/14/1 12/12/1
f 22/22/1 23/23/1 16/16/1 15/15/1
f 23/23/1 24/24/1 17/17/1 16/16/1
f 24/24/1 25/25/1 18/18/1 17/17/1
f 25/25/1 26/26/1 19/19/1 18/18/1
f 26/26/1 27/27/1 20/20/1 19/19/1
f 27/27/1 28/28/1 21/21/1 20/20/1
f 29/29/1 30/30/1 23/23/1 22/22/1
f 30/30/1 31/31/1 24/24/1 23/23/1
f 31/31/1 32/32/1 25/25/1 24/24/1
f 32/32/1 33/33/1 26/26/1 25/25/1
f 33/33/1 34/34/1 27/27/1 26/26/1
f 34/34/1 35/35/1 28/28/1 27/27/1
f 36/36/1 37/37/1 30/30/1 29/29/1
f 37/37/1 38/38/1 31/31/1 30/30/1
f 38/38/1 39/39/1 32/32/1 31/31/1
f 39/39/1 40/40/1 33/33/1 32/32/1
f 40/40/1 41/41/1 34/34/1 33/33/1
f 41/41/1 42/42/1 35/35/1 34/34/1
f 43/43/1 44/44/1 37/37/1 36/36/1
f 44/44/1 45/45/1 38/38/1 37/37/1
f 45/45/1 46/46/1 39/39/1 38/38/1
f 46/46/1 47/47/1 40/40/1 39/39/1
f 47/47/1 48/48/1 41/41/1 40/40/1
f 48/48/1 49/49/1 42/42/1 41/41/1

